# xmcd
#
# Track frame offsets:
#	150
#	18815
#	34372
#	56921
#	68805
#	85810
#	96679
#	108485
#	126280
#	140867
#	157437
#
# Disc length: 2269 seconds
#
# Revision: 0
# Processed by: cddbd v1.5.1PL0 Copyright (c) Steve Scherf et al.
# Submitted via: dBpowerAMP V4.0
#
DISCID=aa08db0b
DTITLE=Todd Nelon Quartet - Tell Me Your Story
DYEAR=1900
DGENRE=
TTITLE0=Raise Your Hands
TTITLE1=I Love To Call
TTITLE2=Cry From The Cross
TTITLE3=When It's Up To God
TTITLE4=Tell Me Your Story
TTITLE5=I'm Gonna Keep On Praising Jesus' Name
TTITLE6=Cornerstone
TTITLE7=All Things Are Possible
TTITLE8=Just A Little While
TTITLE9=A Greater Miracle
TTITLE10=Runnin' Back To The Altar
EXTD=Southern Gospel
EXTT0=
EXTT1=
EXTT2=
EXTT3=
EXTT4=
EXTT5=
EXTT6=
EXTT7=
EXTT8=
EXTT9=
EXTT10=
PLAYORDER=
